<svg width="40" height="40" fill="none" xmlns="http://www.w3.org/2000/svg"><path fill-rule="evenodd" clip-rule="evenodd" d="M2.62.813c4.242 5.349 10.778 13.665 11.106 14.12.273.377.163.736-.292 1-.255.152-.783.303-1.037.303-.292 0-.638-.15-.874-.397-.164-.17-.874-1.247-2.476-3.837A246.117 246.117 0 006.77 8.354c-.008-.004-.015-.007-.019-.005-.027.017.19.42 2.167 4.088 1.402 2.59 1.857 3.516 1.857 3.63 0 .245-.073.377-.364.717-.492.567-.71 1.21-.874 2.552-.182 1.493-.673 2.552-2.075 4.347-.82 1.059-.947 1.248-1.147 1.683-.255.529-.328.831-.364 1.512-.037.718.036 1.172.236 1.852.182.605.383 1.002.874 1.777.419.68.674 1.19.674 1.38 0 .15.036.15.692 0 1.565-.378 2.858-1.021 3.568-1.815.437-.491.546-.756.546-1.436 0-.435-.018-.53-.127-.794-.182-.416-.528-.756-1.275-1.286-.983-.699-1.402-1.266-1.51-2.022-.092-.643.017-1.077.564-2.268.564-1.229.71-1.74.8-2.987.055-.794.146-1.115.365-1.36.236-.265.437-.36 1.001-.435.929-.133 1.53-.378 2.003-.85.418-.398.6-.795.619-1.38l.018-.435-.237-.265C13.908 13.534 2.055 0 2.001 0c-.011 0 .093.134.255.342.103.132.23.294.364.47zM8.21 27.69a.798.798 0 00-.238-1.04c-.31-.208-.782-.113-.782.17 0 .076.036.151.145.189.164.095.182.19.055.397-.128.208-.128.397.036.53.255.207.601.094.783-.247zm6.12-19.58c-.382-.055-.4-.074-.218-.092.345-.056 1.144.018 1.707.149 1.307.316 2.487 1.136 3.74 2.57l.327.39.473-.074c2.015-.335 4.085-.074 5.81.745.473.223 1.217.67 1.308.782.036.037.09.28.127.521.127.876.073 1.527-.2 2.03-.145.28-.145.354-.054.596.073.186.29.317.49.317.296 0 .6-.326.833-.844.008-.156.01-.369.01-.685 0-1.684-.174-2.09-1.236-2.768a12.62 12.62 0 00-.976-.561c-.278-.135-.487-.252-.47-.252.035-.038 1.063.29 1.463.484.61.271.714.29.784.271.052-.058.087-.213.104-.697.035-.735.122-1.219.314-1.664.07-.174.14-.329.157-.329.017 0-.018.135-.07.29-.14.426-.157 1.026-.07 1.703.122.871.175.987 1.01 1.936.384.445.837 1.006 1.01 1.239l.297.425-.296-.31c-.366-.386-1.202-1.122-1.394-1.219-.121-.077-.139-.077-.226.02-.07.077-.087.193-.087.754a9.782 9.782 0 01-.013.358l.055-.237.163.186c.926 1.062 1.653 2.533 1.762 3.576L31 18l-.163-.242c-.273-.428-.527-.708-.872-.95-.617-.428-1.271-.558-2.996-.651-1.562-.094-2.452-.224-3.324-.522-1.489-.503-2.251-1.155-4.013-3.557-.78-1.061-1.271-1.638-1.761-2.123-1.072-1.061-2.143-1.62-3.541-1.843zm-.314 1.282c-.114 1.255.396 2.941 1.19 4.028.622.843 1.585 1.498 2.302 1.573.472.038.605-.112.397-.412-.302-.412-.661-1.068-.755-1.349a14.427 14.427 0 01-.284-1.142c-.32-1.536-.66-2.154-1.415-2.604-.284-.169-.869-.393-1.209-.45L14.053 9l-.037.393zM26.934 21.51C23.29 20.026 22 18.746 22 16.575c0-.315.018-.575.018-.575.013 0 .074.05.163.12v.001l.15.12c.737.594 1.565.854 3.867 1.188 1.344.204 2.117.352 2.817.593 2.228.742 3.609 2.264 3.94 4.323.092.594.037 1.726-.11 2.32-.13.463-.498 1.316-.59 1.335-.018 0-.055-.093-.055-.241-.037-.78-.423-1.521-1.068-2.097-.773-.668-1.767-1.168-4.198-2.152zm-2.779-.21c.06.161.157.542.197.842.314 1.884-.649 3.428-2.594 4.049-.196.08-.982.24-1.748.36-1.552.281-2.26.462-2.947.802-.491.24-1.1.602-1.061.642.02.02.137-.02.255-.06.884-.321 1.867-.482 3.34-.562a75.812 75.812 0 001.346-.107l.147-.013c1.317-.18 2.24-.581 2.947-1.323.393-.42.629-.801.826-1.343.117-.34.137-.48.137-1.082 0-.621 0-.741-.137-1.122-.177-.501-.374-.862-.63-1.162L24.058 21l.098.3zm2.289 4.013c-.455-1.098-.56-2.138-.315-3.12.035-.097.07-.193.105-.193.035 0 .14.058.245.135.21.154.647.424 1.767 1.098 1.418.847 2.223 1.502 2.783 2.253.49.655.788 1.406.927 2.331.088.52.035 1.772-.087 2.292-.385 1.637-1.26 2.947-2.538 3.698-.192.116-.35.193-.367.193-.018 0 .052-.193.157-.424.42-.982.473-1.926.158-2.985-.193-.655-.595-1.445-1.4-2.774-.963-1.54-1.19-1.945-1.435-2.504zm-9.252 3.754c-1.616.273-3.365 1.13-4.788 2.339l-.404.39.365.058c1.923.293 2.442.565 3.788 1.969.77.799 1.039.974 1.673 1.15.942.253 1.865-.195 2.192-1.053.135-.39.116-1.013-.038-1.325-.385-.76-1.52-.994-2.058-.448-.442.448-.307 1.15.25 1.267.052.008.08.013.082.009.002-.006-.036-.025-.12-.068-.25-.117-.366-.273-.366-.526-.019-.605.654-.916 1.27-.644.461.215.634.488.634.956 0 .72-.615 1.286-1.327 1.189-.384-.059-.846-.293-1.096-.585-.615-.702-.384-1.852.5-2.28.673-.332 1.558-.235 2.25.214.788.526 1.134.994 1.807 2.573.231.526.5 1.091.635 1.286.634.975 1.423 1.462 2.346 1.462.519 0 .904-.078 1.384-.331.346-.176.865-.527.827-.566 0-.015-.096.018-.22.061l-.107.037c-1.019.39-2.057.37-2.653-.078-.385-.292-.693-.838-.846-1.54l-.02-.111a47.287 47.287 0 01-.173-1.078c-.211-1.345-.423-1.95-.884-2.65-.48-.722-1.404-1.307-2.423-1.58-.634-.175-1.788-.214-2.48-.097zm-2.155-9.686c.129-.584.55-1.169.99-1.326.293-.113.86-.045 1.135.135.531.337.916 1.079.825 1.618-.092.652-.953 1.192-1.96 1.192-.513 0-.697-.09-.898-.405-.128-.202-.165-.854-.092-1.214zm1.979-.966c.274.202.33.494.183.764-.11.18-.44.36-.678.36-.366 0-.751-.315-.751-.607 0-.585.751-.9 1.246-.517z" fill="#EA337A"/></svg>