<svg width="240" height="240" xmlns="http://www.w3.org/2000/svg" stroke="null" vector-effect="non-scaling-stroke"><path d="M191.495 63.037c20.539 20.539 29.987 43.542 29.987 73.118 0 57.51-41.763 97.492-101.6 97.492H61.277l-34.095-34.094V5.116h59.7c32.041 0 59.016 11.502 77.364 30.809l27.249 27.112zM59.497 35.788h-.41v6.846l29.165 28.892v-6.983L59.497 35.788zm33.684 27.796L65.385 35.788h-3.971L89.21 63.584h3.971zm9.722 0L75.107 35.788h-7.805l27.796 27.796h7.805zm-15.61-27.796h-10.27l27.797 27.796h10.27L87.292 35.788zm37.792 27.933L97.837 36.473c-2.876-.411-5.614-.548-8.627-.685l27.797 27.796h2.875c1.78 0 3.56 0 5.203.137zm8.763.959l-26.563-26.564c-2.328-.548-4.793-.959-7.257-1.37l27.11 27.112c2.329.137 4.657.548 6.71.822zm7.942 1.917l-25.88-25.88c-1.916-.684-3.97-1.369-6.024-1.917l26.427 26.428c1.917.41 3.697.821 5.477 1.369zm3.012.958c1.78.822 3.698 1.643 5.34 2.465l-25.194-25.195c-1.78-.958-3.697-1.917-5.614-2.738l25.468 25.468zM59.086 96.721l4.93 4.929-1.096 1.095-3.834-3.834v71.75h29.166V73.443L59.086 44.825v6.71l27.66 27.522-1.096.959-26.564-26.427v6.846l23.004 23.14-.958 1.096-22.046-22.182v6.983l18.485 18.622-.958 1.096-17.527-17.664v6.983l13.967 14.104-.959 1.095-13.008-13.145v7.12l9.448 9.448-1.095 1.096-8.353-8.49v6.984zm88.866-30.809c-4.656-7.257-10.817-13.419-18.211-18.211l18.211 18.211zm40.804-.137L177.665 54.41c7.394 13.83 12.187 30.946 12.187 48.746 0 1.917 0 3.834-.138 5.614l27.934 28.07v-.685c0-28.617-9.311-50.252-28.892-70.38zm-96.67 104.75c39.845-2.192 65.588-28.345 65.588-67.369 0-10.133-1.78-19.444-5.067-27.66-8.352-5.75-17.937-8.078-32.725-8.078H92.086v103.106zm91.878-32.179l29.028 29.029c2.739-8.9 4.382-18.485 4.656-28.618l-28.07-28.07c-.685 9.859-2.602 19.033-5.614 27.66zm28.48 30.398l-29.028-29.028c-2.602 6.846-5.888 13.282-9.859 19.032l29.576 29.577a88.768 88.768 0 009.311-19.58zm-21.36 34.369c4.244-4.108 7.942-8.764 11.228-13.693l-29.44-29.44c-3.423 4.793-7.257 9.312-11.638 13.283l29.85 29.85zm-42.858-19.58l29.987 29.986a100.268 100.268 0 0011.912-9.448l-29.85-29.85c-3.697 3.423-7.668 6.573-12.05 9.311zm-13.145 7.256l29.987 29.987c4.107-1.917 8.078-4.107 11.912-6.435l-29.987-29.987c-3.697 2.464-7.667 4.518-11.912 6.435zm-12.871 4.793l29.85 29.85c3.97-1.096 7.941-2.602 11.639-4.108l-29.988-29.987c-3.697 1.643-7.53 3.15-11.501 4.245zm-12.46 3.012l29.712 29.713a131.74 131.74 0 0011.092-2.464L120.84 196.13a131.64 131.64 0 01-11.09 2.464zm-1.78.274c-3.287.685-6.71 1.095-10.133 1.37l29.439 29.301c3.56-.136 6.983-.547 10.406-.958l-29.713-29.713zm7.94 30.946h3.972c1.917 0 3.697 0 5.477-.137l-29.302-29.303c-3.013.137-6.025.274-9.174.274h-.138l29.166 29.166zm-82.155-29.166l29.165 29.166h1.917L35.81 200.648h-2.054zm3.97 0l29.166 29.166h2.465L40.19 200.648h-2.465zm4.382 0l29.166 29.166h3.15l-29.166-29.166h-3.15zm5.067 0l29.165 29.166h3.971l-29.165-29.166h-3.971zm5.887 0l29.166 29.166h4.792l-29.165-29.166H53.06zm6.71 0l29.165 29.166h5.751l-29.165-29.166H59.77zm7.805 0l29.165 29.166h6.983L74.56 200.648h-6.983zm8.9 0l29.166 29.166h8.352l-29.302-29.166h-8.216zm295.762-29.713l34.095 34.095v28.617H274.609l-34.094-34.094V5.116h127.752l34.095 34.095v26.975h-97.08l-.138 19.58h47.514l34.094 34.095v27.522h-81.608v23.552h67.094zm26.29-130.08l-29.165-29.166v22.867l29.165 27.796V40.854zm-94.342 21.497l-29.029-27.796h-2.054l29.029 27.796h2.054zm5.477 0l-29.166-27.796h-3.286l29.029 27.796h3.423zm6.846 0l-29.165-27.796h-4.793l29.166 27.796h4.792zm8.216 0l-29.029-27.796h-6.299l29.166 27.796h6.162zm10.954 0l-29.303-27.796h-8.626l29.029 27.796h8.9zm10.954 0L317.33 34.556h-8.763l29.166 27.796h8.9zm11.365 0l-29.165-27.796h-9.312l29.166 27.796h9.31zm10.954 0L340.06 34.556h-9.174l29.166 27.796h8.9zm9.585 0l-29.029-27.796h-7.53l29.165 27.796h7.394zm8.215 0l-29.028-27.796h-6.299l29.303 27.796h6.024zm5.478 0l-28.892-27.796h-3.697l29.302 27.796h3.287zm4.107 0l-28.891-27.796h-2.191l29.165 27.796h1.917zM272.145 74.538l6.71 6.436-1.096.958-5.614-5.34v9.174h29.165V63.447l-29.165-27.796v5.751l25.331 24.236-1.232.822-24.1-23.004v6.299l20.677 19.717-1.233.959-19.443-18.76v6.3l16.02 15.335-1.232.959-14.788-14.24v6.298L283.51 77.14l-1.096.958-10.27-9.858v6.298zm81.608 17.8v23.415h-.137l29.303 27.796v-22.045L353.753 92.34zM302.27 143.55h2.464l-29.165-27.796h-2.465l29.166 27.796zm-24.647-27.796l29.165 27.796h4.793l-29.029-27.796h-4.93zm6.983 0l29.029 27.796h7.53l-29.302-27.796h-7.257zm9.448 0l29.166 27.796h10.269l-29.028-27.796h-10.407zm52.58 27.796l-28.892-27.796h-11.228l29.029 27.796h11.091zm13.145 0l-29.165-27.796h-10.955l29.166 27.796h10.954zm9.448 0l-28.892-27.796h-7.668l29.166 27.796h7.394zm6.846 0l-29.028-27.796h-4.793l29.166 27.796h4.655zm-27.111-27.796l29.302 27.796h2.465l-29.029-27.796h-2.738zm-76.816 48.61l3.56 3.423-1.096 1.095-2.464-2.328v4.382h29.165v-26.427l-29.165-27.796v6.025l25.331 24.373-.958.958-24.373-23.278v6.436l21.086 20.128-1.095.959-19.991-19.17v6.299l16.705 16.02-1.096.959-15.61-14.925v6.298l12.324 11.776-1.095.958-11.228-10.68v6.299l7.942 7.53-1.096.96-6.846-6.573v6.298zm101.189 13.144v23.141l29.165 29.166v-23.141l-29.165-29.166zm-112.965 23.141h-13.282l29.165 29.166h13.283l-29.166-29.166zm13.83 0h-11.913l29.165 29.166h12.05l-29.302-29.166zm1.917 0l29.302 29.166h10.68l-29.302-29.166h-10.68zm12.597 0l29.302 29.166h9.448l-29.165-29.166h-9.585zm19.854 0h-8.352l29.165 29.166h8.49l-29.303-29.166zm38.614 29.166l-29.166-29.166h-7.53l29.302 29.166h7.394zm-27.249-29.166l29.166 29.166h6.572l-29.165-29.166h-6.573zm8.49 0l29.165 29.166h5.888l-29.302-29.166h-5.751zm7.667 0l29.303 29.166h5.066l-29.302-29.166h-5.067zm6.984 0l29.302 29.166h4.382l-29.303-29.166h-4.381zm6.299 0l29.302 29.166h3.834l-29.303-29.166h-3.833zm5.75 0l29.303 29.166h3.286l-29.302-29.166h-3.287zm5.204 0l29.302 29.166h2.738l-29.165-29.166h-2.875zm4.792 0l29.166 29.166h2.464l-29.302-29.166h-2.328zm4.245 0l29.302 29.166h1.917l-29.302-29.166h-1.917zM589.13 67.281H488.215V92.34h49.842l34.095 34.095v27.933h-83.937v79.28h-30.397l-34.095-34.094V5.116h131.313l34.095 34.095v28.07zm-33-55.592V35.65l29.029 27.796h.137V40.854L556.13 11.69zm-70.928 51.758h2.191l-29.165-27.796h-1.918l28.892 27.796zm7.531 0l-29.302-27.796h-3.013l28.892 27.796h3.423zm6.983 0l-29.302-27.796h-4.792l29.028 27.796h5.066zm8.9 0l-29.165-27.796h-6.846l29.028 27.796h6.984zm12.324 0l-29.165-27.796h-10.133l28.892 27.796h10.406zm11.776 0L503.55 35.651h-9.722l29.166 27.796h9.722zm12.87 0l-29.165-27.796h-10.817l29.166 27.796h10.817zm12.187 0l-29.028-27.796h-10.407l29.303 27.796h10.132zm9.038 0l-29.166-27.796H530.8l29.028 27.796h6.984zm6.983 0l-29.166-27.796H539.7l29.165 27.796h4.93zm5.203 0L549.97 35.651h-3.287l29.166 27.796h3.149zm-26.974-27.796l29.028 27.796h2.054l-29.029-27.796h-2.053zM455.216 92.34h29.166V64.543L455.216 36.61v4.655l26.016 25.058-.958.958-25.058-23.962v6.299l21.772 20.95-1.096 1.095-20.676-19.991v6.298l17.527 16.842-1.096 1.096-16.43-15.884v6.299l13.281 12.734-.958.959-12.324-11.776v6.435l9.037 8.627-.958.958-8.079-7.668v6.299l4.793 4.656-.959.958-3.834-3.697v7.53zm83.936 6.572v23.826l29.166 27.796v-22.456L539.152 98.91zm-83.114 23.826l29.028 27.796h2.739l-29.166-27.796h-2.601zm4.655 0l29.029 27.796h4.655l-29.028-27.796h-4.656zm6.71 0l28.891 27.796h8.627l-29.303-27.796h-8.215zm10.269 0l29.165 27.796h10.681l-29.029-27.796h-10.817zm12.871 0l28.892 27.796h12.323l-28.891-27.796h-12.324zm14.24 0l29.03 27.796h10.816l-29.165-27.796h-10.68zm12.598 0l29.302 27.796h8.216l-28.892-27.796h-8.626zm10.543 0l29.029 27.796h4.655l-29.028-27.796h-4.656zm6.573 0l29.165 27.796h2.602l-29.029-27.796h-2.738zm-79.28 77.911l29.165 29.166v-78.596l-.274.273-28.892-27.522v4.519l26.153 25.194-.958.959-25.195-24.1v6.3l21.908 21.086-1.095 1.095-20.813-20.128v6.299l17.664 16.979-1.096 1.095-16.568-16.02v6.298l13.419 12.871-.959.959-12.46-11.913v6.436l9.174 8.763-.958.959-8.216-7.805v6.435l4.93 4.656-.959.958-3.97-3.834v28.618zm-24.921 0l29.165 29.166h5.614l-29.029-29.166h-5.75zm12.597 0h-4.93l29.166 29.166h4.93l-29.166-29.166zm1.917 0l29.302 29.166h3.56l-29.028-29.166h-3.834zm5.75 0l29.166 29.166h2.602l-29.029-29.166h-2.738zM634.865 5.116l34.095 34.095v194.436h-30.945l-34.095-34.094V5.116h30.945zm1.096 8.764l29.165 29.165v-2.19L635.96 11.688v2.19zm0 5.888l29.165 29.165v-3.834L635.96 15.934v3.834zm0 8.078l29.165 29.166V50.85L635.96 21.685v6.161zm0 11.365l29.165 29.166v-9.311L635.96 29.9v9.311zm0 15.473l29.165 29.165V70.294L635.96 41.128v13.556zm0 21.36l29.165 29.166V85.766L635.96 56.601v19.444zm0 124.604l29.165 29.166V107.127L635.96 77.962v122.686zm-19.17 0h-6.299l29.166 29.166h6.161l-29.028-29.166zm36.012 29.166l-29.166-29.166h-4.93l29.166 29.166h4.93zm-27.249-29.166l29.303 29.166h3.56l-29.029-29.166h-3.834zm5.751 0l29.166 29.166h2.601l-29.028-29.166h-2.739zM43.203 355.238c13.281 13.146 19.58 28.07 19.58 46.556 0 38.34-29.302 66.272-69.97 66.272h-34.779v69.56h-30.808l-34.095-34.095V309.094h69.01c24.1 0 43.407 8.627 53.813 19.033l27.249 27.112zm-118.168 31.905l2.875 2.875-1.095 1.096-1.78-1.78v19.032h27.796v-42.173l-27.796-27.796v5.888l23.962 24.51-.958.958-23.004-23.278v6.573l19.717 19.991-.958.959-18.76-18.896v6.435l15.61 15.747-1.095.958-14.514-14.65v6.435l11.365 11.502-1.096.958-10.27-10.406v6.435l7.121 7.258-1.095.958-6.025-6.025v6.436zm31.22-22.32l-26.29-26.426h-3.013l26.564 26.564 1.232-.137h1.506zm6.16 0l-26.426-26.426h-4.108l26.427 26.427h4.108zm7.806 0l-26.427-26.426h-5.888l26.427 26.427h5.888zm9.037 0l-26.427-26.426h-7.12l26.427 26.427h7.12zm-16.568-26.426h-7.942l26.427 26.427h7.942l-26.427-26.427zm34.231 26.427l-25.605-25.606c-2.054-.41-4.382-.547-6.572-.684l26.29 26.29h5.887zm2.876-3.15l-20.265-20.265c-1.78-.685-3.834-1.232-5.751-1.643l25.331 25.331c.548 0 1.096 0 1.643.137-.274-1.232-.547-2.327-.958-3.56zm-1.232-3.15c-3.013-6.845-8.353-12.186-15.473-15.609l15.473 15.61zm41.9-.547l-12.05-12.186c3.286 7.394 5.477 16.568 5.477 25.742 0 1.643 0 3.286-.137 4.793l25.194 22.866c-.547-16.294-6.71-29.165-18.485-41.215zm-79.145 50.39c23.689 0 40.257-14.652 40.257-35.465 0-1.232 0-2.464-.137-3.697-2.328-.41-4.793-.547-7.12-.547h-37.655v39.708h4.655zm93.795 15.883c2.465-6.846 3.834-14.377 3.834-22.456v-.685l-25.331-23.14c-.685 7.805-2.602 15.061-5.614 21.634l27.111 24.647zM27.32 400.835c-2.464 5.067-5.477 9.585-9.174 13.693l28.207 25.605c3.286-4.381 6.162-9.31 8.216-14.514l-27.249-24.784zm8.216 49.842a66.239 66.239 0 009.995-9.585l-28.344-25.605c-3.149 3.423-6.572 6.298-10.406 9.037l28.755 26.153zM-4.86 430.959l29.166 26.564c3.697-1.78 6.983-3.697 10.132-6.025L5.548 425.345c-3.287 2.054-6.71 3.971-10.407 5.614zm-11.502 3.971l29.44 26.7a78.485 78.485 0 009.996-3.56l-29.303-26.563c-3.286 1.37-6.71 2.465-10.133 3.423zm-11.09 2.054l29.576 26.7a96.898 96.898 0 009.448-1.642l-29.44-26.838c-3.149.822-6.298 1.37-9.585 1.78zm18.758 27.248h1.507c2.464 0 4.929-.136 7.257-.273l-29.44-26.701c-2.738.274-5.613.41-8.49.548l29.166 26.426zm-38.75-26.426l29.165 26.426h7.395l-29.029-26.426h-7.531zm1.643 95.986v-69.56h.137l-29.165-26.426h-.137v6.983l25.331 23.004-1.095.958-24.236-22.045v7.257l20.539 18.622-1.095.959-19.444-17.664V463l15.746 14.378-.958.958-14.788-13.419v7.257l10.954 9.996-.959.959-9.995-9.038v6.984l6.298 5.75-.958 1.096-5.34-4.792v21.497l29.165 29.166zm-26.974-95.986l29.028 26.426h3.013L-69.9 437.806h-2.875zm4.792 0l29.165 26.426h3.697l-29.165-26.426h-3.697zm5.888 0l29.028 26.426h4.656l-29.029-26.426h-4.655zm6.435 0l29.303 26.426h6.025l-29.029-26.426h-6.299zm-44.638 66.82l29.166 29.166h6.025l-29.03-29.166h-6.16zm13.008 0h-4.929l29.165 29.166h4.93l-29.166-29.166zm1.917 0l29.303 29.166h3.56l-29.029-29.166h-3.834zm5.751 0l29.166 29.166h2.601l-29.028-29.166h-2.739zm323.559-195.668l32.725 32.725v108.172c0 54.771-32.588 90.646-82.019 90.646-26.153 0-44.912-7.394-61.89-24.373l-28.071-27.796c-15.473-15.2-23.825-38.066-23.825-67.368V308.958h30.808l34.095 34.094v109.816c0 8.49.959 16.705 3.15 24.099 4.518 1.095 9.447 1.78 14.65 1.78 30.946 0 49.568-21.909 49.568-58.879v-110.91h30.809zm-102.01 35.737l-29.166-29.165v2.19l29.165 29.166v-2.19zm103.105-26.837l27.796 27.796v-2.328l-27.796-27.66v2.192zm-103.106 34.916v-3.834l-29.165-29.165v3.834l29.165 29.165zm103.106-29.028l27.796 27.796v-3.834l-27.796-27.796v3.834zm-103.106 37.107v-6.162l-29.165-29.165v6.161l29.165 29.166zm103.106-29.029l27.796 27.797v-6.162l-27.796-27.796v6.161zm-103.106 40.394v-9.311l-29.165-29.166v9.311l29.165 29.166zm103.106-29.029l27.796 27.796v-9.31l-27.796-27.797v9.311zM141.927 387.69v-13.555l-29.165-29.166v13.556l29.165 29.165zm103.106-29.028l27.796 27.796v-13.556l-27.796-27.796v13.556zm-103.106 50.39v-19.445l-29.165-29.165v19.444l29.165 29.165zm130.902-20.677l-27.796-27.796v19.443l27.796 27.797v-19.444zm-160.067-6.572v38.065c0 28.481 11.775 48.335 31.904 55.73-1.78-7.12-2.739-14.789-2.739-22.73v-41.9l-29.165-29.165zM268.174 482.99c3.012-9.995 4.655-21.086 4.655-33.136v-40.12l-27.796-27.795v39.024c0 12.734-1.506 24.236-4.518 34.368l27.659 27.66zm-28.207-26.29c-2.054 6.71-4.793 12.872-8.216 18.212l27.522 27.522c3.424-5.477 6.3-11.502 8.353-18.074l-27.66-27.66zm8.763 59.153c3.697-3.697 6.983-7.668 9.859-12.186l-27.522-27.523c-2.876 4.519-6.162 8.49-9.86 12.187l27.523 27.522zm-39.024-18.759l27.796 27.796c3.697-2.328 7.12-5.066 10.27-8.078l-27.66-27.66c-3.149 3.013-6.572 5.614-10.406 7.942zm-11.365 5.751l27.933 27.933c3.423-1.506 6.847-3.15 9.996-5.203l-27.797-27.796c-3.149 1.917-6.572 3.56-10.132 5.066zm-77.774-3.697l14.925 14.24c2.875 2.739 5.75 5.204 8.626 7.394l-19.991-19.991-3.56-1.643zm10.817 4.382c-1.37-.548-2.739-.959-4.108-1.507l23.004 23.004c2.054 1.232 3.97 2.465 6.025 3.423l-24.921-24.92zm55.729 2.738l28.07 28.07c3.286-.822 6.435-1.78 9.585-3.012l-27.933-27.933a113.735 113.735 0 01-9.722 2.875zm-52.99-1.917L160 530.232c1.78.684 3.56 1.505 5.478 2.053l-26.564-26.564c-1.643-.41-3.15-.821-4.793-1.369zm7.53 2.054l26.838 26.838c1.917.548 3.834 1.095 5.888 1.506L147.13 507.5c-1.917-.41-3.697-.684-5.477-1.095zm34.78 1.643l28.07 28.07c3.149-.274 6.161-.821 9.037-1.506l-28.07-28.07c-2.876.685-5.888 1.232-9.037 1.506zm-27.112-.274l27.386 27.386c2.19.41 4.381.684 6.572.958l-27.522-27.522a51.658 51.658 0 01-6.436-.822zm17.527 1.096l27.796 27.796c2.739 0 5.477-.137 8.079-.411l-27.933-27.933c-2.602.274-5.34.41-7.942.548zm-9.037-.137l27.522 27.522c2.465.274 4.792.41 7.394.41l-27.796-27.795h-1.917c-1.78 0-3.423 0-5.203-.137zm270.841-34.506l34.095 34.095v29.302h-124.74l-34.095-34.094V309.094h30.808l34.095 34.095v131.04h59.837zm-63.67-129.396l-29.166-29.165v2.054l29.165 29.165v-2.054zm0 7.942v-3.834l-29.166-29.165v3.834l29.165 29.165zm0 8.079v-6.162l-29.166-29.165v6.161l29.165 29.166zm0 11.365v-9.311l-29.166-29.166v9.311l29.165 29.166zm0 15.472v-13.555l-29.166-29.166v13.556l29.165 29.165zm0 21.361v-19.444l-29.166-29.165v19.444l29.165 29.165zm-29.166 65.177h29.165v-63.26l-29.165-29.165v92.425zm123.097 59.564v-23.826l-29.165-29.165v23.825l29.165 29.166zm-148.429-29.166l29.166 29.166h12.734l-29.302-29.166h-12.598zm14.515 0l29.302 29.166h11.502L336.5 504.626H325zm13.418 0l29.303 29.166h10.27l-29.303-29.166h-10.27zm12.187 0l29.302 29.166h9.037l-29.165-29.166h-9.174zm11.091 0l29.302 29.166h8.079l-29.165-29.166h-8.216zm10.133 0l29.165 29.166h7.257l-29.302-29.166h-7.12zm9.037 0l29.302 29.166h6.436L387.3 504.626h-6.435zm8.352 0l29.303 29.166h5.614l-29.303-29.166h-5.614zm7.531 0l29.302 29.166h4.93l-29.165-29.166h-5.067zm6.983 0l29.166 29.166h4.382l-29.303-29.166h-4.245zm6.162 0l29.303 29.166h3.697l-29.166-29.166h-3.834zm5.751 0l29.165 29.166h3.287l-29.302-29.166h-3.15zm5.203 0l29.166 29.166h2.738l-29.165-29.166h-2.739zm4.656 0l29.165 29.166h2.328l-29.165-29.166h-2.328zm184.304-60.522c10.543 10.544 15.062 22.182 15.062 38.203 0 34.369-27.112 58.194-66.41 58.194-28.48.547-49.704-7.805-62.986-17.938l-33.684-33.684v-32.314l3.286-1.37c14.788 13.83 35.327 21.635 56.688 21.635 17.8 0 32.177-6.436 37.792-16.158-21.361-10.406-46.419-16.157-60.522-34.094l-20.676-26.29c-9.859-12.598-14.651-21.772-14.651-36.834 0-33.684 26.837-56.824 65.998-56.824 19.855-.411 39.983 4.93 54.497 14.377l33.821 33.821V385.5l-3.012 1.506c-15.473-11.365-33.136-17.8-49.568-17.8-18.896 0-32.999 7.53-36.696 19.306 19.17 6.846 39.709 13.693 52.717 26.975l28.344 28.617zm-24.784-116.798V352.5h-.137l29.302 29.303V356.47l-29.165-29.165zm-49.43 9.037c-1.096-.137-2.192-.137-3.15-.137-2.054 0-4.108.137-6.162.274l29.576 29.576c2.739-.41 5.751-.685 8.764-.685l-29.029-29.028zm38.75 29.576l-28.344-28.344a84.445 84.445 0 00-8.49-1.232l29.029 29.028c2.601 0 5.203.274 7.805.548zm-20.129.41l-29.713-29.712c-3.56.547-6.846 1.232-9.995 2.19l29.986 29.988c3.013-1.096 6.3-1.918 9.722-2.465zm29.303 1.37l-27.386-27.385c-2.464-.822-5.066-1.643-7.668-2.191l28.207 28.207c2.191.274 4.519.821 6.847 1.37zm-40.394 1.643l-29.987-29.987c-3.97 1.37-7.257 3.287-9.995 5.614l30.26 30.261c2.739-2.328 6.025-4.245 9.722-5.888zm49.157 1.096l-25.88-25.88c-2.327-1.095-4.792-2.19-7.256-3.149l26.974 26.975a54.175 54.175 0 016.162 2.054zm-67.231 16.705c1.37-4.245 3.834-7.942 7.257-11.091l-30.26-30.261c-3.835 3.56-6.3 7.941-6.984 12.734l27.796 27.796 2.19.822zm75.447-13.282l-23.004-23.004c-2.328-1.506-4.656-3.012-7.12-4.245l25.057 25.058c1.644.685 3.424 1.37 5.067 2.19zM582.42 353.87l22.046 22.045a49.091 49.091 0 014.381 2.464l-25.194-25.194-1.233.685zm-87.496 7.53c0 11.502 10.543 17.938 24.784 23.689l-24.784-24.784v1.096zm10.133 66.136c4.929 5.34 11.775 9.585 19.58 13.419l-31.493-31.493c-1.643-.959-3.286-1.917-4.792-2.876 4.929 6.847 10.406 14.104 16.705 20.95zm1.78-11.502a155.259 155.259 0 01-9.585-4.381l31.082 31.082a323.952 323.952 0 009.448 4.108l-30.945-30.809zm3.149 1.233l31.082 30.945c2.465 1.095 4.93 2.054 7.394 3.15l-31.356-31.357c-2.328-.821-4.655-1.78-7.12-2.738zm10.133 3.834l31.766 31.767c2.054.821 4.108 1.78 6.162 2.738l-32.451-32.588a86.801 86.801 0 01-5.477-1.917zm41.215 35.737c.136-.684.41-1.369.547-2.053l-28.891-29.029a52.318 52.318 0 00-4.245-1.506l32.589 32.588zm-25.058-29.85l25.88 25.88c.136-.548.136-1.233.136-1.78v-.137l-22.456-22.456-3.56-1.507zm25.88 21.909l-.412-2.054-15.335-15.336c-.959-.548-2.054-.959-3.15-1.506l18.896 18.896zm44.911-2.054l-15.473-15.473c1.917 5.203 3.013 11.091 3.013 17.937 0 3.424-.274 6.71-.822 9.996l27.112 27.112c.137-1.37.137-2.739.137-4.108 0-15.199-4.108-25.605-13.967-35.464zm-46.418-3.15c-1.917-3.696-5.34-6.846-9.722-9.584l9.722 9.584zm60.11 44.502l-27.248-27.249c-1.369 6.299-3.697 12.187-6.983 17.39l28.755 28.755a53.986 53.986 0 005.477-18.896zm-15.198 31.63c3.56-3.423 6.572-7.257 8.9-11.502l-28.754-28.755c-2.602 4.108-5.751 7.668-9.449 10.955l29.303 29.302zm-40.667-21.635l29.713 29.85c3.697-2.19 6.983-4.518 9.995-7.257l-29.439-29.439c-3.15 2.602-6.572 4.93-10.27 6.846zm-88.866-.547l21.908 21.908c2.054 1.506 4.108 3.012 6.436 4.382l-24.784-24.647-3.56-1.643zm77.364 5.477l29.85 29.85c3.56-1.233 6.983-2.602 10.132-4.382l-29.713-29.713c-3.15 1.643-6.572 3.15-10.27 4.245zm-70.38-2.465l25.742 25.742c1.506.685 3.012 1.506 4.655 2.191l-26.564-26.564-3.834-1.369zm6.709 2.191l26.974 27.111c1.643.548 3.424 1.233 5.204 1.78l-27.66-27.659-4.518-1.232zm52.58 3.012l29.713 29.714c3.423-.548 6.71-1.233 9.722-2.191l-29.713-29.713c-3.15.821-6.3 1.643-9.722 2.19zm-45.46-1.095l27.796 27.796c1.917.548 3.834 1.095 5.888 1.506l-28.344-28.344c-1.78-.273-3.56-.684-5.34-.958zm7.668 1.37l28.344 28.343c2.19.41 4.244.822 6.435 1.096l-28.617-28.755c-2.191-.137-4.108-.41-6.162-.685zm65.725 29.712l-29.576-29.713c-2.876.548-5.888.822-8.9 1.096l29.439 29.439c3.149-.137 6.161-.411 9.037-.822zm-57.373-28.754l28.892 28.754c2.465.274 4.792.548 7.257.685l-29.165-29.166c-2.328 0-4.656-.136-6.984-.273zm38.066 29.439c2.465.137 5.066.137 7.531.137h.685l-29.303-29.44c-1.506.137-2.875.137-4.381.137h-3.697l29.165 29.166zm227.847-61.617l34.094 34.095v28.617H681.146l-34.095-34.094V309.094h127.753l34.095 34.095v26.975h-97.082l-.137 19.58h47.514l34.095 34.095v27.523H711.68v23.55h67.095zm26.29-130.08l-29.166-29.166v22.867l29.165 27.796v-21.498zm-94.343 21.497l-29.029-27.796h-2.053l29.028 27.796h2.054zm5.477 0l-29.165-27.796h-3.287l29.029 27.796h3.423zm6.846 0l-29.165-27.796h-4.793l29.166 27.796h4.792zm8.216 0l-29.029-27.796h-6.298l29.165 27.796h6.162zm10.954 0l-29.302-27.796h-8.627l29.029 27.796h8.9zm10.954 0l-29.302-27.796h-8.763l29.165 27.796h8.9zm11.365 0l-29.165-27.796h-9.311l29.165 27.796h9.311zm10.954 0l-28.891-27.796h-9.174l29.165 27.796h8.9zm9.585 0l-29.028-27.796h-7.531l29.165 27.796h7.394zm8.216 0l-29.029-27.796h-6.298l29.302 27.796h6.025zm5.477 0l-28.892-27.796h-3.697l29.303 27.796h3.286zm4.108 0l-28.892-27.796h-2.19l29.165 27.796h1.917zM678.68 378.516l6.71 6.436-1.096.958-5.614-5.34v9.174h29.165v-22.319l-29.165-27.796v5.751l25.331 24.236-1.232.822-24.099-23.004v6.298l20.676 19.718-1.232.959-19.444-18.76v6.3l16.02 15.335-1.232.958-14.788-14.24v6.299l11.365 10.817-1.095.958-10.27-9.858v6.298zm81.608 17.8v23.415h-.137l29.303 27.796v-22.045l-29.166-29.165zm-51.484 51.211h2.465l-29.166-27.796h-2.464l29.165 27.796zm-24.647-27.796l29.166 27.796h4.792l-29.029-27.796h-4.929zm6.983 0l29.029 27.796h7.53L698.4 419.731h-7.258zm9.448 0l29.166 27.796h10.27l-29.03-27.796H700.59zm52.58 27.796l-28.891-27.796H713.05l29.028 27.796h11.091zm13.145 0l-29.165-27.796h-10.954l29.165 27.796h10.954zm9.448 0l-28.891-27.796h-7.668l29.165 27.796h7.394zm6.847 0l-29.03-27.796h-4.791l29.165 27.796h4.656zm-27.112-27.796l29.302 27.796h2.465l-29.028-27.796h-2.739zm-76.816 48.61l3.56 3.423-1.095 1.095-2.465-2.328v4.382h29.165v-26.427l-29.165-27.796v6.025l25.331 24.372-.958.959-24.373-23.278v6.436l21.087 20.128-1.096.959-19.991-19.17v6.299l16.705 16.02-1.095.959-15.61-14.925v6.298l12.324 11.776-1.096.958-11.228-10.68v6.299l7.942 7.53-1.096.96-6.846-6.573v6.298zm101.189 13.144v23.141l29.165 29.166V510.65l-29.165-29.166zm-112.965 23.141h-13.282l29.166 29.166h13.282l-29.166-29.166zm13.83 0h-11.913l29.166 29.166h12.05l-29.303-29.166zm1.917 0l29.302 29.166h10.68l-29.302-29.166h-10.68zm12.597 0l29.303 29.166h9.447l-29.165-29.166h-9.585zm19.855 0h-8.353l29.165 29.166h8.49l-29.302-29.166zm38.613 29.166l-29.165-29.166h-7.532l29.303 29.166h7.394zm-27.248-29.166l29.165 29.166h6.572l-29.165-29.166h-6.572zm8.489 0l29.165 29.166h5.888l-29.302-29.166h-5.751zm7.668 0l29.302 29.166h5.067l-29.303-29.166h-5.066zm6.983 0l29.302 29.166h4.382l-29.302-29.166h-4.382zm6.299 0l29.302 29.166h3.834l-29.302-29.166h-3.834zm5.75 0l29.303 29.166h3.286l-29.302-29.166h-3.286zm5.204 0l29.302 29.166h2.739l-29.166-29.166h-2.875zm4.792 0l29.166 29.166h2.464l-29.302-29.166h-2.328zm4.245 0l29.302 29.166h1.918l-29.303-29.166h-1.917z" fill-rule="nonzero" fill="#2E1A4E" stroke-width="25.3315"/></svg>